PathFileType	4	(X/Y/Z)	C:\Users\°ÂÌØÂü\Desktop\20210112\bx_n_10_1802-Unnamed.trc
DataRate	CameraRate	NumFrames	NumMarkers	Units	OrigDataRate	OrigDataStartFrame	OrigNumFrames
50.00	50.00	       8	0	mm	50.00	454	       518
Frame#	Time	
		

454	9.060	-672.55212	173.18761	156.02708	-548.92865	-34.17876	164.06837	-571.75580	-17.44004	806.35974	-667.23077	276.25455	877.33435	-666.96832	-83.44189	1540.18396	-610.48334	-77.71400	156.82765	-655.22253	11.08082	520.83136	-744.00830	247.89543	506.26062	-574.89551	91.36976	1358.49182	-675.95001	70.23382	578.99243	-656.69891	136.87476	580.31152	-652.76141	-68.94548	159.34796	-579.22333	-20.79817	1062.04150	-786.40149	49.76284	176.75594	-706.18280	-33.41143	570.22998	-697.98120	-37.59046	616.36786	-667.05347	53.87267	160.25201	-765.36383	222.86232	206.66682	-707.09222	150.20267	214.49188	-882.58478	296.15625	144.63521	-562.15833	207.56140	820.33105	-594.96204	22.15347	169.35696	-709.60101	72.80910	217.28378	-590.30640	219.60931	173.40411	-660.19922	297.13321	159.29478	-623.61755	305.38611	159.17249	-554.95782	256.50183	165.53107	-527.95721	304.59146	146.92218	-701.58453	94.91470	1849.34668	-681.45703	273.53366	1546.36255	-517.28235	-72.66290	143.67201	-673.21088	259.23962	746.11188	-792.31195	173.49043	185.44839				-755.16528	-40.63398	490.98898	-757.56427	-12.32811	207.20140	-876.18384	-78.95393	141.52309	-646.79547	197.50244	534.15070	-647.73822	-82.03683	875.66351	-672.48370	-67.67033	760.82593	-701.00452	240.42653	642.88574	-699.83594	237.74593	578.39563	-783.94568	85.27148	1048.19775	-587.20209	231.83389	1072.39880	
455	9.080	-672.41724	172.43755	156.46468	-548.77838	-34.22168	163.91710	-570.90155	-17.06431	806.40491	-666.30890	276.65457	876.57690	-668.60168	-83.34100	1540.12268	-610.30328	-77.62959	156.89217	-654.43317	11.89369	520.69446	-744.51044	247.54466	505.44855	-575.11212	91.79433	1358.80322	-674.76172	70.58553	579.18030	-657.59021	137.07648	580.41937	-652.83960	-68.94411	159.42838	-578.78986	-19.75851	1061.79968	-786.16156	49.91503	176.90561	-705.75726	-33.36079	570.39581	-697.15045	-37.03486	616.28253	-667.09717	53.92194	160.27998	-765.36383	222.86232	206.66682	-707.21063	150.37286	214.75401	-882.45099	296.12335	144.65236	-561.50446	207.91414	819.22662	-595.03418	22.13107	169.24315	-709.36298	72.82275	217.40562	-590.39111	219.52856	173.42989	-660.13745	297.31308	159.03615	-623.55591	305.54230	159.03209	-554.96582	256.47601	165.61023	-528.03589	304.71042	146.77905	-704.36346	95.38467	1849.10596	-683.37451	273.42169	1545.96069	-517.36725	-72.95130	143.25047	-672.96149	259.81885	745.81732	-792.38922	173.51501	185.43794				-754.94324	-40.07007	490.89175	-757.54016	-12.14512	207.33920	-875.97589	-78.81084	141.28232	-648.10699	197.93344	534.20343	-647.33203	-81.90755	875.92432	-672.03284	-67.22340	761.03967	-701.79071	241.12137	643.08563	-700.81525	238.31071	578.76257	-782.75598	86.11521	1047.97217	-584.93365	232.47488	1071.94824	
456	9.100	-672.69946	172.58908	156.41287	-548.84991	-34.20393	163.82460	-570.49139	-16.86029	806.27319	-665.05872	277.25867	876.69165	-669.95288	-82.64743	1540.11865	-610.31689	-77.50562	156.95380	-653.96368	12.07653	520.37274	-745.03052	248.11961	505.68433	-575.23560	91.98457	1358.76501	-673.39777	71.20837	579.37494	-658.56354	137.49811	580.49731	-652.70752	-68.77895	159.39992	-577.62976	-19.29380	1062.06653	-785.92627	50.18790	176.86983	-704.87500	-32.36747	570.03748	-696.58203	-36.62788	616.41034	-666.81067	53.82100	159.54131	-765.36383	222.86232	206.66682	-707.36383	150.65590	214.75159	-882.48688	296.20758	144.78180	-561.12305	208.03418	818.61121	-594.95587	22.23826	169.15225	-709.52484	73.07198	217.07994	-590.28564	219.62384	173.39442	-660.24622	297.10806	158.88721	-623.51538	305.43509	159.19902	-555.00665	256.55731	165.53706	-527.95721	304.59146	146.92218	-706.79510	95.88685	1848.87854	-683.97028	274.13773	1545.52307	-517.25262	-72.52518	143.34636	-672.95862	260.52057	745.80273	-792.45416	173.59119	185.41183				-753.50568	-39.49816	491.56201	-757.49689	-11.60160	207.27699	-876.25970	-78.81245	141.69560	-648.83447	198.58783	534.58344	-646.60400	-81.66631	875.96570	-671.48956	-66.36884	760.75165	-702.53137	241.69464	643.38635	-701.95416	238.28119	578.35388	-781.61987	87.48928	1047.59570	-583.32355	232.38000	1071.52625	
457	9.120	-672.35510	172.57727	156.52545	-548.68665	-34.15263	163.83859	-569.42206	-16.54963	806.15753	-663.81915	278.45105	876.78333	-671.60028	-82.57203	1539.80334	-610.38116	-77.44705	156.93030	-652.84216	12.34997	520.35492	-746.20227	248.82745	505.73810	-575.97937	92.29024	1358.49268	-672.72290	71.71306	579.00525	-659.95215	137.97736	581.11499	-652.67725	-68.65752	159.51074	-577.02557	-18.56572	1061.06543	-785.92365	50.39914	176.94481	-704.40826	-31.62050	569.86554	-695.48560	-36.27776	617.08405	-666.58057	54.22461	159.47612	-765.39368	222.87083	206.59868	-707.51953	150.80568	214.58804	-882.43616	296.14734	144.72641	-560.14691	208.31425	818.32245	-594.67792	22.29571	169.07755	-709.06714	73.45627	217.00058	-590.39398	219.75592	173.41702	-660.31342	297.13217	158.82082	-623.55115	305.60623	159.01134	-555.02692	256.42798	165.64223	-528.04419	304.62152	146.80469	-709.02222	96.52145	1848.31067	-685.23657	274.07288	1545.06445	-516.98560	-72.69893	143.64578	-672.65857	261.09894	745.86005	-792.47754	173.67125	185.46199				-752.99200	-38.96199	491.31732	-757.40155	-11.53069	207.45653	-876.18384	-78.95393	141.52309	-649.86432	198.84612	534.94177	-646.14539	-80.79958	875.66241	-670.98224	-65.76746	760.81146	-702.84375	242.03549	643.55609	-702.88153	239.34653	579.09900	-780.47595	88.47714	1047.46082	-581.95679	233.59837	1071.14246	
458	9.140	-672.32465	172.77869	156.79645	-548.77838	-34.22168	163.91710	-568.86029	-15.91266	805.77112	-663.31073	279.01129	876.41138	-673.17065	-82.18008	1539.72668	-610.31067	-77.43101	156.98245	-652.15009	13.14698	520.16632	-746.84625	248.89046	505.60968	-576.49664	92.24828	1358.43567	-672.44006	71.80968	578.92749	-660.95148	138.39619	581.25269	-652.59180	-68.54253	159.67564	-576.48956	-18.32838	1060.93140	-786.02448	50.49308	177.18227	-703.41187	-31.27041	569.93817	-694.92053	-35.54199	617.12268	-666.52692	54.55917	159.52074	-765.81714	223.10695	206.41588	-707.36383	150.65590	214.75159	-882.41296	296.14938	144.81676	-560.02478	208.72470	817.93091	-594.66669	22.33930	168.79596	-708.89325	73.57568	216.98592	-590.34485	219.68919	173.41504	-660.33020	297.49661	158.89053	-623.49988	305.84940	159.11589	-555.06287	256.57980	165.48419	-528.11450	304.37653	146.40186	-711.32245	97.20139	1847.83813	-685.52502	274.20047	1544.68396	-517.21326	-72.16828	143.62906	-672.60779	261.62943	745.75446	-792.52570	174.03650	185.31789				-752.64319	-38.69049	491.55792	-757.04504	-11.15492	207.54193	-876.25970	-78.81245	141.69560	-650.86670	198.93413	534.79980	-645.60553	-80.27341	875.76166	-670.43842	-65.33114	760.87616	-703.57758	242.27682	643.59137	-703.67389	239.73895	579.19312	-779.52643	89.39621	1047.12415	-580.91754	233.57713	1070.22595	
459	9.160	-672.50568	172.69298	156.75136	-548.60382	-34.35212	164.05641	-568.31531	-15.63651	805.87146	-662.03326	279.66901	876.22162	-674.64844	-81.89621	1539.28979	-610.35272	-77.35774	157.03621	-651.44873	13.67749	520.23859	-748.16150	249.69775	506.09256	-576.85107	92.09273	1358.24780	-671.64111	72.35747	578.53680	-662.07745	138.47267	581.27142	-652.45074	-68.35176	159.90169	-575.53180	-18.51708	1060.93542	-786.21838	50.72993	177.30780	-702.76819	-31.22709	570.25909	-693.93365	-35.59859	617.73273	-666.40833	54.67516	159.62067	-765.77582	223.01373	206.24908	-707.51953	150.80568	214.58804	-882.54572	296.17123	144.79439	-559.63397	208.98796	817.06616	-594.84021	22.52607	168.71759	-708.93591	73.69669	216.88577	-590.33820	219.72093	173.44800	-660.52545	297.45505	158.64626	-623.52887	305.89005	159.05806	-555.05298	256.51624	165.61363	-528.12097	304.58777	146.60715	-713.51544	97.73524	1847.09875	-685.88379	274.53372	1544.16235	-517.28613	-72.40974	142.99864	-672.72998	261.85083	745.70178	-792.56030	173.93314	185.27596				-751.89819	-38.21539	491.46719	-757.10492	-11.00319	207.64082	-876.18384	-78.95393	141.52309	-651.98370	199.43201	534.80981	-644.89349	-80.04623	875.82397	-669.61432	-64.61852	760.86096	-704.19690	242.93115	643.76740	-704.76984	239.96210	578.95123	-778.48639	90.37914	1046.87256	-579.51306	234.53981	1070.06323	
460	9.180	-672.53094	172.61993	156.67641	-548.55316	-34.11375	164.01837	-567.56580	-15.24407	805.83051	-661.35010	280.10352	876.00330	-676.72815	-81.92866	1538.92908	-610.39319	-77.19683	157.33162	-651.26392	13.86408	519.87677	-748.61383	249.96706	505.95871	-577.21417	92.06206	1357.93787	-670.86975	72.45059	578.14874	-663.06927	139.48318	580.68518	-652.52319	-68.31790	159.95496	-575.00079	-17.95552	1061.02759	-786.01892	50.63190	177.04924	-702.02765	-30.92350	570.08917	-693.65332	-34.61359	616.73596	-666.42676	55.07310	159.38406	-765.91742	223.08722	206.31029	-707.78613	150.78790	214.67200	-882.48456	296.10822	144.64120	-558.94922	209.51677	816.52698	-594.80884	22.52340	168.54939	-708.81268	73.61594	216.74443	-590.26251	219.74940	173.52473	-660.52545	297.45505	158.64626	-623.52887	305.89005	159.05806	-554.96582	256.47601	165.61023	-528.03979	304.43768	146.58080	-715.15344	98.56856	1846.66589	-685.70197	275.17355	1543.88501	-517.49988	-72.09483	143.34242	-672.22711	262.43195	745.17352	-792.60968	173.97157	185.30402				-751.44556	-38.17276	491.47247	-757.02014	-11.03780	207.53513	-876.18384	-78.95393	141.52309	-652.35712	199.59109	534.85455	-644.54523	-79.64320	875.67480	-668.91528	-64.16413	760.65826	-704.39020	243.50293	643.69177	-705.34375	240.41136	578.93787	-777.81171	91.13706	1046.68604	-577.70380	234.47743	1069.44629	
461	9.200	-672.64343	172.85498	156.86211	-548.56396	-34.22382	163.86937	-567.24542	-14.84805	805.55054	-660.37744	280.97797	875.89380	-678.43805	-81.54927	1538.58167	-610.20599	-77.11980	157.36697	-650.80103	13.83840	519.83905	-748.68036	250.32314	505.64474	-577.54803	92.05154	1357.87329	-670.50775	73.01550	578.30524	-663.22766	139.47777	580.85333	-652.48566	-68.28506	160.01344	-574.34814	-17.74572	1060.76099	-785.95099	50.44749	176.85559	-701.45630	-30.75691	569.96338	-693.31079	-34.22893	616.64844	-666.71295	54.61393	159.23807	-765.91400	223.17633	206.31293	-708.08276	150.69443	214.91029	-882.48456	296.10822	144.64120	-558.58264	209.03490	816.11707	-594.68567	22.73379	168.71733	-708.81268	73.61594	216.74443	-590.22296	219.65218	173.21063	-660.52545	297.45505	158.64626	-623.52887	305.89005	159.05806	-555.15881	256.43732	165.45767	-528.04419	304.62152	146.80469	-716.60815	99.41456	1846.32776	-685.79340	275.33914	1543.71167	-517.30652	-72.27419	143.42531	-671.84302	262.66916	745.27118	-792.72125	174.09109	185.20409				-750.66443	-38.03440	491.16528	-757.05115	-10.95151	207.63919	-876.25970	-78.81245	141.69560	-652.80560	199.84283	534.65234	-643.89801	-79.29688	875.59686	-668.00452	-64.02888	760.43280	-704.50476	243.99522	643.77490	-705.76874	241.00749	578.85529	-777.21539	91.89778	1046.58484	-576.83710	235.04915	1069.32532	
